<svg width="20" height="21" viewBox="0 0 20 21" fill="none" xmlns="http://www.w3.org/2000/svg">
<g id="Bold Duotone / Messages, Conversation / Chat Square">
<path id="Vector" d="M10.9056 18.3235L11.3359 18.5782L10.9056 18.3235ZM11.3574 17.5603L10.9271 17.3056L11.3574 17.5603ZM8.64275 17.5603L8.21248 17.815L8.64275 17.5603ZM9.0945 18.3235L9.52478 18.0688H9.52478L9.0945 18.3235ZM1.98392 13.7616L2.44586 13.5703H2.44586L1.98392 13.7616ZM6.4914 16.3267L6.48278 16.8266L6.4914 16.3267ZM4.2389 16.0166L4.04756 16.4785L4.04756 16.4785L4.2389 16.0166ZM18.0162 13.7616L18.4782 13.953L18.0162 13.7616ZM13.5087 16.3267L13.5001 15.8267L13.5087 16.3267ZM15.7613 16.0166L15.9526 16.4785H15.9526L15.7613 16.0166ZM3.65634 2.78111L3.39509 2.35479V2.35479L3.65634 2.78111ZM2.28075 4.1567L1.85443 3.89545L2.28075 4.1567ZM7.83574 16.5086L8.08712 16.0764L8.08712 16.0764L7.83574 16.5086ZM18.3125 12.0116L18.8121 12.0317L18.8465 11.1795L18.0861 11.5658L18.3125 12.0116ZM5.12869 2.29492L5.6217 2.37826L5.73635 1.69995L5.05578 1.80027L5.12869 2.29492ZM11.3359 18.5782L11.7877 17.815L10.9271 17.3056L10.4754 18.0688L11.3359 18.5782ZM8.21248 17.815L8.66423 18.5782L9.52478 18.0688L9.07303 17.3056L8.21248 17.815ZM10.4754 18.0688C10.2663 18.422 9.73381 18.422 9.52478 18.0688L8.66423 18.5782C9.26047 19.5855 10.7397 19.5855 11.3359 18.5782L10.4754 18.0688ZM2.16675 10.0838V9.25044H1.16675V10.0838H2.16675ZM1.16675 10.0838C1.16675 11.0476 1.16648 11.7956 1.20755 12.3976C1.24894 13.0042 1.33395 13.499 1.52198 13.953L2.44586 13.5703C2.31671 13.2585 2.24314 12.8852 2.20523 12.3296C2.16702 11.7695 2.16675 11.0613 2.16675 10.0838H1.16675ZM6.50001 15.8267C5.45383 15.8087 4.88405 15.7426 4.43024 15.5547L4.04756 16.4785C4.69426 16.7464 5.4367 16.8086 6.48278 16.8266L6.50001 15.8267ZM1.52198 13.953C1.99562 15.0964 2.90409 16.0049 4.04756 16.4785L4.43024 15.5547C3.53181 15.1825 2.818 14.4687 2.44586 13.5703L1.52198 13.953ZM13.5173 16.8266C14.5634 16.8086 15.3059 16.7464 15.9526 16.4785L15.5699 15.5547C15.1161 15.7426 14.5463 15.8087 13.5001 15.8267L13.5173 16.8266ZM17.5543 13.5703C17.1822 14.4687 16.4684 15.1825 15.5699 15.5547L15.9526 16.4785C17.0961 16.0049 18.0045 15.0964 18.4782 13.953L17.5543 13.5703ZM2.16675 9.25044C2.16675 7.87683 2.16728 6.88174 2.24125 6.10369C2.31452 5.33308 2.4563 4.82716 2.70707 4.41795L1.85443 3.89545C1.49119 4.48819 1.32597 5.16522 1.24574 6.00903C1.16622 6.8454 1.16675 7.8962 1.16675 9.25044H2.16675ZM3.39509 2.35479C2.76716 2.73958 2.23922 3.26752 1.85443 3.89545L2.70707 4.41795C3.00941 3.92458 3.42422 3.50977 3.91759 3.20743L3.39509 2.35479ZM9.07303 17.3056C8.90264 17.0177 8.75754 16.7716 8.61745 16.5794C8.47121 16.3787 8.30879 16.2054 8.08712 16.0764L7.58436 16.9409C7.64411 16.9756 7.71 17.0321 7.80931 17.1684C7.91477 17.3131 8.03247 17.5109 8.21248 17.815L9.07303 17.3056ZM6.48278 16.8266C6.84638 16.8328 7.08493 16.8375 7.26874 16.8578C7.44328 16.8771 7.52626 16.9071 7.58436 16.9409L8.08712 16.0764C7.86381 15.9466 7.62893 15.8916 7.3788 15.8639C7.13794 15.8372 6.84504 15.8327 6.50001 15.8267L6.48278 16.8266ZM11.7877 17.815C11.9677 17.5109 12.0854 17.3131 12.1908 17.1684C12.2901 17.0321 12.356 16.9756 12.4158 16.9409L11.913 16.0764C11.6913 16.2054 11.5289 16.3787 11.3827 16.5794C11.2426 16.7716 11.0975 17.0177 10.9271 17.3056L11.7877 17.815ZM13.5001 15.8267C13.1551 15.8327 12.8622 15.8372 12.6213 15.8639C12.3712 15.8916 12.1363 15.9466 11.913 16.0764L12.4158 16.9409C12.4739 16.9071 12.5569 16.8771 12.7314 16.8578C12.9152 16.8375 13.1538 16.8328 13.5173 16.8266L13.5001 15.8267ZM18.0861 11.5658C16.9096 12.1634 15.5783 12.5004 14.1667 12.5004V13.5004C15.7393 13.5004 17.2254 13.1246 18.539 12.4574L18.0861 11.5658ZM14.1667 12.5004C9.38028 12.5004 5.50008 8.62025 5.50008 3.83378H4.50008C4.50008 9.17253 8.828 13.5004 14.1667 13.5004V12.5004ZM5.50008 3.83378C5.50008 3.33741 5.54176 2.85117 5.6217 2.37826L4.63568 2.21159C4.54647 2.73934 4.50008 3.28134 4.50008 3.83378H5.50008ZM3.91759 3.20743C4.25105 3.00308 4.64906 2.87102 5.2016 2.78958L5.05578 1.80027C4.41633 1.89452 3.87791 2.05891 3.39509 2.35479L3.91759 3.20743ZM17.8129 11.9914C17.7827 12.7394 17.7089 13.1971 17.5543 13.5703L18.4782 13.953C18.7017 13.4133 18.7806 12.8124 18.8121 12.0317L17.8129 11.9914Z" fill="black" fill-opacity="0.7"/>
<path id="Vector_2" d="M16.3437 2.78099L16.0825 3.20731L16.3437 2.78099ZM17.7193 4.15658L18.1457 3.89533V3.89533L17.7193 4.15658ZM18.3124 12.0115L18.5389 12.4572L18.8002 12.3245L18.812 12.0316L18.3124 12.0115ZM5.12861 2.2948L5.0557 1.80015L4.69617 1.85314L4.6356 2.21147L5.12861 2.2948ZM8.75 2.66699H11.25V1.66699H8.75V2.66699ZM17.8333 9.25033V10.0837H18.8333V9.25033H17.8333ZM11.25 2.66699C12.6236 2.66699 13.6187 2.66752 14.3968 2.7415C15.1674 2.81477 15.6733 2.95655 16.0825 3.20731L16.605 2.35467C16.0123 1.99144 15.3352 1.82622 14.4914 1.74599C13.655 1.66646 12.6042 1.66699 11.25 1.66699V2.66699ZM18.8333 9.25033C18.8333 7.89608 18.8339 6.84528 18.7543 6.00891C18.6741 5.1651 18.5089 4.48808 18.1457 3.89533L17.293 4.41783C17.5438 4.82704 17.6856 5.33296 17.7588 6.10357C17.8328 6.88162 17.8333 7.87671 17.8333 9.25033H18.8333ZM16.0825 3.20731C16.5759 3.50965 16.9907 3.92446 17.293 4.41783L18.1457 3.89533C17.7609 3.26741 17.2329 2.73946 16.605 2.35467L16.0825 3.20731ZM18.086 11.5657C16.9096 12.1633 15.5782 12.5003 14.1667 12.5003V13.5003C15.7392 13.5003 17.2253 13.1245 18.5389 12.4572L18.086 11.5657ZM14.1667 12.5003C9.3802 12.5003 5.5 8.62013 5.5 3.83366H4.5C4.5 9.17241 8.82791 13.5003 14.1667 13.5003V12.5003ZM5.5 3.83366C5.5 3.3373 5.54168 2.85105 5.62161 2.37814L4.6356 2.21147C4.54639 2.73923 4.5 3.28122 4.5 3.83366H5.5ZM8.75 1.66699C7.14966 1.66699 5.9679 1.66569 5.0557 1.80015L5.20152 2.78946C6.02355 2.66829 7.117 2.66699 8.75 2.66699V1.66699ZM18.812 12.0316C18.8334 11.5014 18.8333 10.8642 18.8333 10.0837H17.8333C17.8333 10.8714 17.8332 11.4857 17.8128 11.9913L18.812 12.0316Z" fill="currentcolor" fill-opacity="0.7"/>
</g>
</svg>
