<svg xmlns="http://www.w3.org/2000/svg" width="18" height="21" viewBox="0 0 18 21" fill="none">
  <path d="M6.69367 18.6203C6.62361 18.6203 6.55485 18.5942 6.50166 18.5406C6.39528 18.4334 6.39528 18.2596 6.50166 18.1524L7.19055 17.4583C7.42277 17.2243 7.69262 17.0426 7.9962 16.9158C8.29848 16.789 8.61892 16.7249 8.94585 16.7249H12.5252C13.0662 16.7249 13.628 16.4661 14.0275 16.0321L17.2618 12.2766C17.3864 12.1316 17.4564 11.9459 17.4564 11.7538C17.4564 11.5224 17.3565 11.3015 17.1827 11.1499C16.8532 10.861 16.3511 10.8976 16.0644 11.2296L13.7019 13.972C13.6033 14.0871 13.4308 14.0988 13.3179 13.9995C13.205 13.9002 13.1921 13.7263 13.2907 13.6126L15.6531 10.8701C16.137 10.3094 16.9829 10.2479 17.5394 10.7355C17.8326 10.9917 18 11.3629 18 11.7538C18 12.078 17.8832 12.3917 17.6731 12.6361L14.4349 16.3955C14.4336 16.3982 14.431 16.3995 14.4297 16.4021C13.9212 16.9563 13.2258 17.274 12.5239 17.274H8.94456C8.42692 17.274 7.94041 17.4766 7.57586 17.8452L6.88697 18.5393C6.83378 18.5942 6.76372 18.6203 6.69367 18.6203Z" fill="black" fill-opacity="0.8"/>
  <path d="M4.8282 20.4998C4.75814 20.4998 4.68938 20.4737 4.63619 20.4188L0.786978 16.5404C0.736382 16.4894 0.706543 16.4188 0.706543 16.3469C0.706543 16.275 0.735084 16.2044 0.786978 16.1535L2.65256 14.2738C2.75894 14.1666 2.93148 14.1666 3.03787 14.2738L6.88708 18.1521C6.93767 18.2031 6.96751 18.2737 6.96751 18.3456C6.96751 18.4175 6.93897 18.4881 6.88708 18.539L5.0215 20.4188C4.96831 20.4737 4.89825 20.4998 4.8282 20.4998ZM1.3643 16.3469L4.8282 19.8371L6.30846 18.3456L2.84456 14.8554L1.3643 16.3469Z" fill="black" fill-opacity="0.8"/>
  <path d="M12.4708 15.199H8.67221C8.52171 15.199 8.39976 15.0761 8.39976 14.9245C8.39976 14.7729 8.52171 14.65 8.67221 14.65H12.4708C12.8886 14.65 13.2285 14.3075 13.2285 13.8879C13.2285 13.8644 13.2272 13.8409 13.2259 13.82C13.2259 13.8186 13.2259 13.8186 13.2259 13.8173C13.2103 13.6409 13.1325 13.4749 13.0079 13.3481C12.8652 13.2043 12.6745 13.1245 12.4721 13.1245H5.36398C4.84634 13.1245 4.35984 13.3271 3.99529 13.6958L3.03785 14.6605C2.93147 14.7677 2.75892 14.7677 2.65254 14.6605C2.54616 14.5533 2.54616 14.3794 2.65254 14.2722L3.60998 13.3075C3.8422 13.0736 4.11205 12.8919 4.41433 12.7651C4.71661 12.6383 5.03576 12.5742 5.36398 12.5742H12.4695C12.8172 12.5742 13.1441 12.7102 13.3906 12.9585C13.606 13.1755 13.7396 13.4618 13.7669 13.7664C13.7708 13.8056 13.7721 13.8461 13.7721 13.8866C13.7721 14.6108 13.1883 15.199 12.4708 15.199Z" fill="black" fill-opacity="0.8"/>
  <path d="M9.84074 12.215H8.86644C8.71594 12.215 8.59399 12.0921 8.59399 11.9405V3.25302C8.59399 3.10139 8.71594 2.97852 8.86644 2.97852C9.01693 2.97852 9.13888 3.10139 9.13888 3.25302V11.666H9.5683V3.25302C9.5683 3.10139 9.69025 2.97852 9.84074 2.97852C9.99123 2.97852 10.1132 3.10139 10.1132 3.25302V11.9405C10.1132 12.0921 9.99123 12.215 9.84074 12.215Z" fill="black" fill-opacity="0.8"/>
  <path d="M11.3933 13.1248H7.31443C7.16394 13.1248 7.04199 13.0019 7.04199 12.8503V11.9405C7.04199 11.7889 7.16394 11.666 7.31443 11.666H11.3933C11.5438 11.666 11.6657 11.7889 11.6657 11.9405V12.8503C11.6657 13.0019 11.5438 13.1248 11.3933 13.1248ZM7.58688 12.5758H11.1208V12.215H7.58688V12.5758Z" fill="black" fill-opacity="0.8"/>
  <path d="M9.35329 3.63401C8.74224 3.63401 8.24536 3.13337 8.24536 2.51769C8.24536 1.90201 8.74224 1.40137 9.35329 1.40137C9.96434 1.40137 10.4612 1.90201 10.4612 2.51769C10.4612 3.13337 9.96434 3.63401 9.35329 3.63401ZM9.35329 1.95038C9.04323 1.95038 8.79024 2.20528 8.79024 2.51769C8.79024 2.8301 9.04323 3.085 9.35329 3.085C9.66336 3.085 9.91634 2.8301 9.91634 2.51769C9.91634 2.20528 9.66336 1.95038 9.35329 1.95038Z" fill="black" fill-opacity="0.8"/>
  <path d="M5.07959 9.30024C3.90161 9.30024 2.94287 8.33424 2.94287 7.14733C2.94287 7.11204 2.94936 7.07675 2.96233 7.04407L4.82661 2.41538C4.86813 2.31211 4.96802 2.24414 5.07959 2.24414C5.19116 2.24414 5.28976 2.31211 5.33257 2.41538L7.19685 7.04407C7.20983 7.07675 7.21631 7.11204 7.21631 7.14733C7.21631 8.33424 6.25758 9.30024 5.07959 9.30024ZM3.48775 7.19831C3.515 8.05974 4.21816 8.75123 5.07959 8.75123C5.94103 8.75123 6.64419 8.05974 6.67143 7.19831L5.07959 3.24674L3.48775 7.19831Z" fill="black" fill-opacity="0.8"/>
  <path d="M6.9437 7.42108H3.21385C3.06336 7.42108 2.94141 7.29821 2.94141 7.14658C2.94141 6.99494 3.06336 6.87207 3.21385 6.87207H6.9437C7.0942 6.87207 7.21615 6.99494 7.21615 7.14658C7.21615 7.29821 7.0942 7.42108 6.9437 7.42108Z" fill="black" fill-opacity="0.8"/>
  <path d="M13.6262 9.2996C12.4482 9.2996 11.4895 8.3336 11.4895 7.14669C11.4895 7.11139 11.496 7.0761 11.509 7.04342L13.3745 2.41343C13.4161 2.31016 13.5159 2.24219 13.6275 2.24219C13.7391 2.24219 13.8377 2.31016 13.8805 2.41343L15.7448 7.04211C15.7578 7.07479 15.7642 7.11009 15.7642 7.14538C15.7642 8.3336 14.8055 9.2996 13.6262 9.2996ZM12.0344 7.19767C12.0616 8.05909 12.7648 8.75059 13.6262 8.75059C14.4877 8.75059 15.1908 8.05909 15.2181 7.19767L13.6262 3.2474L12.0344 7.19767Z" fill="black" fill-opacity="0.8"/>
  <path d="M15.4918 7.42108H11.7619C11.6115 7.42108 11.4895 7.29821 11.4895 7.14658C11.4895 6.99494 11.6115 6.87207 11.7619 6.87207H15.4918C15.6423 6.87207 15.7642 6.99494 15.7642 7.14658C15.7642 7.29821 15.6423 7.42108 15.4918 7.42108Z" fill="black" fill-opacity="0.8"/>
  <path d="M14.7545 2.79218H10.1892C10.0387 2.79218 9.91675 2.6693 9.91675 2.51767C9.91675 2.36604 10.0387 2.24316 10.1892 2.24316H14.7545C14.905 2.24316 15.027 2.36604 15.027 2.51767C15.027 2.6693 14.905 2.79218 14.7545 2.79218Z" fill="black" fill-opacity="0.8"/>
  <path d="M8.51821 2.79218H3.95286C3.80237 2.79218 3.68042 2.6693 3.68042 2.51767C3.68042 2.36604 3.80237 2.24316 3.95286 2.24316H8.51821C8.6687 2.24316 8.79065 2.36604 8.79065 2.51767C8.79065 2.6693 8.6687 2.79218 8.51821 2.79218Z" fill="black" fill-opacity="0.8"/>
  <path d="M9.76051 2.05815C9.61002 2.05815 9.48807 1.93527 9.48807 1.78364V1.18496C9.48807 1.10914 9.4271 1.04901 9.35315 1.04901C9.2792 1.04901 9.21822 1.11045 9.21822 1.18496V1.78364C9.21822 1.93527 9.09627 2.05815 8.94578 2.05815C8.79529 2.05815 8.67334 1.93527 8.67334 1.78364V1.18496C8.67334 0.807185 8.97822 0.5 9.35315 0.5C9.72808 0.5 10.033 0.807185 10.033 1.18496V1.78364C10.033 1.93527 9.911 2.05815 9.76051 2.05815Z" fill="black" fill-opacity="0.8"/>
</svg>
