<svg xmlns="http://www.w3.org/2000/svg" width="50" height="56" viewBox="0 0 50 56" fill="none">
  <path d="M17.4844 50.7363C17.2883 50.7363 17.0957 50.6631 16.9468 50.5131C16.6489 50.2129 16.6489 49.7261 16.9468 49.426L18.8757 47.4824C19.526 46.8273 20.2816 46.3185 21.1316 45.9635C21.978 45.6084 22.8753 45.4291 23.7907 45.4291H33.8131C35.328 45.4291 36.9009 44.7044 38.0197 43.4892L47.0759 32.9736C47.4247 32.5673 47.6208 32.0475 47.6208 31.5095C47.6208 30.8617 47.3411 30.2431 46.8543 29.8185C45.9316 29.0096 44.5258 29.1121 43.723 30.0418L37.108 37.7208C36.8319 38.0429 36.3487 38.0758 36.0327 37.7977C35.7167 37.5195 35.6803 37.0327 35.9564 36.7142L42.5714 29.0352C43.9264 27.465 46.2949 27.293 47.8533 28.6582C48.6743 29.3756 49.1429 30.4151 49.1429 31.5095C49.1429 32.4172 48.816 33.2957 48.2275 33.9801L39.1604 44.5067C39.1568 44.514 39.1495 44.5177 39.1459 44.525C37.7219 46.0769 35.7748 46.9664 33.8095 46.9664H23.7871C22.3376 46.9664 20.9754 47.5337 19.9546 48.5658L18.0257 50.5094C17.8768 50.6631 17.6806 50.7363 17.4844 50.7363Z" fill="#D8AE75"/>
  <path d="M12.2606 56.0012C12.0645 56.0012 11.8719 55.928 11.723 55.7743L0.94495 44.9146C0.803277 44.7718 0.719727 44.5742 0.719727 44.3729C0.719727 44.1716 0.799645 43.9739 0.94495 43.8312L6.16869 38.5679C6.46656 38.2677 6.9497 38.2677 7.24758 38.5679L18.0256 49.4276C18.1673 49.5703 18.2508 49.768 18.2508 49.9693C18.2508 50.1706 18.1709 50.3682 18.0256 50.511L12.8019 55.7743C12.6529 55.928 12.4568 56.0012 12.2606 56.0012ZM2.56147 44.3729L12.2606 54.1455L16.4055 49.9693L6.70632 40.1966L2.56147 44.3729Z" fill="#D8AE75"/>
  <path d="M33.6608 41.1582H23.0244C22.603 41.1582 22.2616 40.8141 22.2616 40.3896C22.2616 39.965 22.603 39.6209 23.0244 39.6209H33.6608C34.8305 39.6209 35.7822 38.662 35.7822 37.4871C35.7822 37.4212 35.7786 37.3553 35.775 37.2967C35.775 37.2931 35.775 37.2931 35.775 37.2894C35.7314 36.7953 35.5134 36.3304 35.1647 35.9754C34.7651 35.5728 34.2311 35.3495 33.6644 35.3495H13.7612C12.3118 35.3495 10.9495 35.9168 9.92875 36.949L7.24786 39.6502C6.94998 39.9503 6.46684 39.9503 6.16896 39.6502C5.87109 39.3501 5.87109 38.8633 6.16896 38.5631L8.84985 35.8619C9.50009 35.2068 10.2557 34.698 11.1021 34.343C11.9485 33.9879 12.8421 33.8086 13.7612 33.8086H33.6572C34.6307 33.8086 35.5461 34.1892 36.2363 34.8847C36.8393 35.4923 37.2135 36.2938 37.2898 37.1467C37.3007 37.2565 37.3043 37.3699 37.3043 37.4834C37.3043 39.5111 35.6696 41.1582 33.6608 41.1582Z" fill="#D8AE75"/>
  <path d="M26.2969 32.8012H23.5688C23.1474 32.8012 22.8059 32.4571 22.8059 32.0325V7.70711C22.8059 7.28253 23.1474 6.93848 23.5688 6.93848C23.9901 6.93848 24.3316 7.28253 24.3316 7.70711V31.2639H25.534V7.70711C25.534 7.28253 25.8755 6.93848 26.2969 6.93848C26.7183 6.93848 27.0597 7.28253 27.0597 7.70711V32.0325C27.0597 32.4571 26.7183 32.8012 26.2969 32.8012Z" fill="#D8AE75"/>
  <path d="M30.6419 35.3543H19.2209C18.7995 35.3543 18.458 35.0102 18.458 34.5856V32.0382C18.458 31.6136 18.7995 31.2695 19.2209 31.2695H30.6419C31.0633 31.2695 31.4047 31.6136 31.4047 32.0382V34.5856C31.4047 35.0102 31.0633 35.3543 30.6419 35.3543ZM19.9837 33.817H29.879V32.8068H19.9837V33.817Z" fill="#D8AE75"/>
  <path d="M24.9314 8.77694C23.2204 8.77694 21.8291 7.3751 21.8291 5.65117C21.8291 3.92723 23.2204 2.52539 24.9314 2.52539C26.6424 2.52539 28.0337 3.92723 28.0337 5.65117C28.0337 7.3751 26.6424 8.77694 24.9314 8.77694ZM24.9314 4.06266C24.0632 4.06266 23.3548 4.77639 23.3548 5.65117C23.3548 6.52595 24.0632 7.23968 24.9314 7.23968C25.7996 7.23968 26.5079 6.52595 26.5079 5.65117C26.5079 4.77639 25.7996 4.06266 24.9314 4.06266Z" fill="#D8AE75"/>
  <path d="M12.9646 24.6433C9.66621 24.6433 6.98169 21.9384 6.98169 18.615C6.98169 18.5162 6.99985 18.4174 7.03618 18.3259L12.2563 5.36522C12.3725 5.07607 12.6522 4.88574 12.9646 4.88574C13.2771 4.88574 13.5531 5.07607 13.673 5.36522L18.8931 18.3259C18.9294 18.4174 18.9476 18.5162 18.9476 18.615C18.9476 21.9384 16.2631 24.6433 12.9646 24.6433ZM8.5074 18.7577C8.58368 21.1698 10.5526 23.106 12.9646 23.106C15.3767 23.106 17.3456 21.1698 17.4219 18.7577L12.9646 7.69309L8.5074 18.7577Z" fill="#D8AE75"/>
  <path d="M18.1845 19.38H7.74064C7.31925 19.38 6.97778 19.036 6.97778 18.6114C6.97778 18.1868 7.31925 17.8428 7.74064 17.8428H18.1845C18.6059 17.8428 18.9473 18.1868 18.9473 18.6114C18.9473 19.036 18.6059 19.38 18.1845 19.38Z" fill="#D8AE75"/>
  <path d="M36.8968 24.6421C33.5983 24.6421 30.9138 21.9372 30.9138 18.6138C30.9138 18.515 30.932 18.4161 30.9683 18.3246L36.192 5.36034C36.3083 5.07119 36.588 4.88086 36.9004 4.88086C37.2128 4.88086 37.4889 5.07119 37.6088 5.36034L42.8289 18.321C42.8652 18.4125 42.8834 18.5113 42.8834 18.6101C42.8834 21.9372 40.1988 24.6421 36.8968 24.6421ZM32.4395 18.7565C32.5158 21.1686 34.4847 23.1048 36.8968 23.1048C39.3089 23.1048 41.2777 21.1686 41.354 18.7565L36.8968 7.69552L32.4395 18.7565Z" fill="#D8AE75"/>
  <path d="M42.1205 19.381H31.6767C31.2553 19.381 30.9138 19.037 30.9138 18.6124C30.9138 18.1878 31.2553 17.8438 31.6767 17.8438H42.1205C42.5419 17.8438 42.8834 18.1878 42.8834 18.6124C42.8834 19.037 42.5419 19.381 42.1205 19.381Z" fill="#D8AE75"/>
  <path d="M40.0542 6.41813H27.2709C26.8495 6.41813 26.5081 6.07407 26.5081 5.64949C26.5081 5.22491 26.8495 4.88086 27.2709 4.88086H40.0542C40.4756 4.88086 40.817 5.22491 40.817 5.64949C40.817 6.07407 40.4756 6.41813 40.0542 6.41813Z" fill="#D8AE75"/>
  <path d="M22.592 6.41813H9.80875C9.38737 6.41813 9.0459 6.07407 9.0459 5.64949C9.0459 5.22491 9.38737 4.88086 9.80875 4.88086H22.592C23.0134 4.88086 23.3549 5.22491 23.3549 5.64949C23.3549 6.07407 23.0134 6.41813 22.592 6.41813Z" fill="#D8AE75"/>
  <path d="M26.072 4.36291C25.6506 4.36291 25.3091 4.01886 25.3091 3.59428V1.91792C25.3091 1.70563 25.1384 1.53727 24.9313 1.53727C24.7243 1.53727 24.5535 1.70929 24.5535 1.91792V3.59428C24.5535 4.01886 24.2121 4.36291 23.7907 4.36291C23.3693 4.36291 23.0278 4.01886 23.0278 3.59428V1.91792C23.0278 0.860137 23.8815 0 24.9313 0C25.9812 0 26.8348 0.860137 26.8348 1.91792V3.59428C26.8348 4.01886 26.4934 4.36291 26.072 4.36291Z" fill="#D8AE75"/>
</svg>
