<svg xmlns="http://www.w3.org/2000/svg" width="20" height="21" viewBox="0 0 20 21" fill="none">
  <path d="M19.5149 8.47319C19.2894 8.24609 18.9565 8.19174 18.6795 8.31012L18.1111 7.73745L18.1236 7.72491C18.2202 7.62759 18.2733 7.49819 18.2733 7.36063C18.2733 7.22299 18.2201 7.0936 18.1235 6.99632L15.1496 3.99978C15.036 3.88539 14.8519 3.88539 14.7384 3.99978C14.6248 4.11425 14.6248 4.29975 14.7384 4.41418L17.6626 7.36059C17.3159 7.70991 17.107 7.92045 13.631 11.4228C12.8654 10.6514 13.9338 11.7279 9.15953 6.91748C10.1522 5.91732 12.2117 3.84214 13.1912 2.85526L13.7568 3.42524C13.8703 3.53963 14.0545 3.53963 14.168 3.42524C14.2816 3.31076 14.2816 3.12527 14.168 3.01087L13.5527 2.39081C13.3533 2.18996 13.0289 2.18992 12.8295 2.39081L12.8171 2.40335L12.249 1.831C12.3649 1.55712 12.3166 1.22058 12.0868 0.989024L11.8242 0.724411C11.6807 0.5797 11.4898 0.5 11.2867 0.5C11.0837 0.5 10.8928 0.5797 10.7492 0.724333L7.04462 4.457C6.90104 4.60167 6.82197 4.79401 6.82197 4.99857C6.82197 5.20314 6.90108 5.39547 7.04462 5.54015L7.30728 5.80476C7.45087 5.94943 7.64176 6.02913 7.84482 6.02913C7.94897 6.02913 8.04994 6.00815 8.14296 5.96818L8.71106 6.54058L8.69865 6.55308C8.60206 6.65036 8.54886 6.77976 8.54886 6.9174C8.54886 7.05496 8.60206 7.18436 8.69865 7.28171L10.2274 8.822L9.39303 9.66264L9.36174 9.63112C9.25922 9.52778 9.12289 9.47086 8.97787 9.47086C8.83285 9.47086 8.69651 9.52778 8.59403 9.63108L8.08953 10.1394C7.90841 10.3219 7.88491 10.5959 8.00388 10.8012L7.43644 11.3171C7.31721 11.4255 7.30775 11.6108 7.41535 11.7309C7.52299 11.8511 7.70682 11.8606 7.82609 11.7522L8.40245 11.2282L9.35271 12.1857L2.78305 19.522C2.3359 20.0214 1.55885 20.0513 1.07742 19.5661C0.602344 19.0875 0.618862 18.3042 1.12119 17.8476L6.80813 12.6776C6.92737 12.5692 6.93683 12.3839 6.82923 12.2637C6.72166 12.1437 6.53775 12.1341 6.41848 12.2425L0.731581 17.4125C-0.0134811 18.0899 -0.048999 19.2599 0.666168 19.9805C1.37618 20.696 2.53761 20.6709 3.21489 19.9146L9.77648 12.5871C9.98513 12.7092 10.2562 12.6793 10.4331 12.501L10.9377 11.9926C11.0402 11.8893 11.0967 11.752 11.0967 11.6059C11.0967 11.4598 11.0402 11.3224 10.9377 11.2191L10.9063 11.1876L11.7407 10.3469L13.2694 11.8873C13.4688 12.0881 13.7931 12.0881 13.9925 11.8873L14.005 11.8747L14.5733 12.4474C14.4558 12.7264 14.5098 13.0619 14.7352 13.289L14.9978 13.5537C15.2943 13.8523 15.7764 13.8523 16.0728 13.5537L19.7775 9.82099C20.0738 9.52235 20.0738 9.03649 19.7775 8.73781L19.5149 8.47319ZM7.71857 5.39047L7.45587 5.12578C7.38611 5.05554 7.38607 4.94173 7.45587 4.87144L11.1605 1.13874C11.2303 1.06841 11.3431 1.06841 11.413 1.13877L11.6756 1.40343C11.7454 1.47367 11.7454 1.58748 11.6756 1.65776C11.6438 1.68988 7.97491 5.38657 7.97103 5.39047C7.90116 5.4608 7.78836 5.46072 7.71857 5.39047ZM8.59279 5.59277L11.8764 2.28427L12.4059 2.81776L9.12226 6.12626L8.59279 5.59277ZM10.0493 12.059C10.0425 12.0521 8.53203 10.5302 8.52812 10.5263L8.97779 10.0732C9.17042 10.2673 10.2766 11.3818 10.499 11.6059L10.0493 12.059ZM10.4951 10.7732L9.8042 10.0771L10.6385 9.23648L11.3294 9.93257L10.4951 10.7732ZM17.6998 8.15182L18.2293 8.6853L14.9457 11.9938L14.4162 11.4603L17.6998 8.15182ZM19.3663 9.40667L15.6616 13.1393C15.5921 13.2095 15.4788 13.2095 15.4092 13.1393L15.1465 12.8747C15.0769 12.8046 15.0769 12.6904 15.1465 12.6203L15.1506 12.6162C21.6064 6.11145 15.2844 12.4814 18.8511 8.88764C18.9208 8.81751 19.034 8.81755 19.1036 8.88764L19.3662 9.15225C19.4359 9.22242 19.4359 9.33654 19.3663 9.40667Z" fill="black" fill-opacity="0.8"/>
  <path d="M9.78808 18.5815V18.6983H9.73185C9.1681 18.6983 8.70947 19.1604 8.70947 19.7284V20.108C8.70947 20.3242 8.88408 20.5001 9.0987 20.5001H19.6109C19.8255 20.5001 20.0001 20.3242 20.0001 20.108V19.7284C20.0001 19.1604 19.5415 18.6983 18.9777 18.6983H18.9215V18.5815C18.9215 17.8423 18.5272 17.1942 17.9394 16.8394C18.0576 16.6962 18.1288 16.5122 18.1288 16.3119C18.1288 15.8561 17.7608 15.4854 17.3085 15.4854H11.4012C10.9488 15.4854 10.5808 15.8561 10.5808 16.3119C10.5808 16.5122 10.652 16.6962 10.7702 16.8394C10.1823 17.1942 9.78808 17.8423 9.78808 18.5815ZM18.3399 18.5815V18.6983H17.8874C17.7268 18.6983 17.5966 18.8295 17.5966 18.9913C17.5966 19.1532 17.7268 19.2844 17.8874 19.2844H18.9777C19.2208 19.2844 19.4185 19.4836 19.4185 19.7284V19.9141H9.2911V19.7284C9.2911 19.4835 9.48881 19.2844 9.73185 19.2844H16.5303C16.6909 19.2844 16.8211 19.1532 16.8211 18.9913C16.8211 18.8295 16.6909 18.6983 16.5303 18.6983H10.3697V18.5815C10.3697 17.7858 11.0122 17.1384 11.802 17.1384H16.9076C17.6974 17.1384 18.3399 17.7858 18.3399 18.5815ZM11.4012 16.5523C11.2695 16.5523 11.1625 16.4444 11.1625 16.3119C11.1625 16.1793 11.2695 16.0714 11.4012 16.0714H17.3085C17.4401 16.0714 17.5472 16.1793 17.5472 16.3119C17.5472 16.4444 17.4401 16.5523 17.3085 16.5523H11.4012Z" fill="black" fill-opacity="0.8"/>
</svg>
