<svg xmlns="http://www.w3.org/2000/svg" width="20" height="21" viewBox="0 0 20 21" fill="none">
  <path d="M14.1667 17.167C14.1667 15.7863 12.3012 14.667 10 14.667C7.69881 14.667 5.83333 15.7863 5.83333 17.167M17.5 14.6673C17.5 13.6421 16.4716 12.7611 15 12.3753M2.5 14.6673C2.5 13.6421 3.52841 12.7611 5 12.3753M15 9.03041C15.5115 8.57265 15.8333 7.90741 15.8333 7.16699C15.8333 5.78628 14.714 4.66699 13.3333 4.66699C12.693 4.66699 12.109 4.9077 11.6667 5.30357M5 9.03041C4.48854 8.57265 4.16667 7.90741 4.16667 7.16699C4.16667 5.78628 5.28595 4.66699 6.66667 4.66699C7.30696 4.66699 7.89104 4.9077 8.33333 5.30357M10 12.167C8.61929 12.167 7.5 11.0477 7.5 9.66699C7.5 8.28628 8.61929 7.16699 10 7.16699C11.3807 7.16699 12.5 8.28628 12.5 9.66699C12.5 11.0477 11.3807 12.167 10 12.167Z" stroke="black" stroke-opacity="0.7" stroke-width="2" stroke-linecap="round" stroke-linejoin="round"/>
</svg>
