<svg width="20" height="21" viewBox="0 0 20 21" fill="none" xmlns="http://www.w3.org/2000/svg">
<g id="Iconly/Regular/Bold/Home">
<g id="Home">
<path id="Home_2" d="M7.61223 17.8114V15.2633C7.61223 14.6129 8.14339 14.0856 8.79861 14.0856H11.1938C11.5084 14.0856 11.8102 14.2097 12.0327 14.4305C12.2551 14.6514 12.3801 14.951 12.3801 15.2633V17.8114C12.3782 18.0819 12.485 18.3419 12.6769 18.5338C12.8688 18.7257 13.13 18.8337 13.4024 18.8337H15.0364C15.7996 18.8356 16.5322 18.536 17.0726 18.001C17.6129 17.466 17.9166 16.7395 17.9166 15.9818V8.72271C17.9166 8.11071 17.6433 7.53019 17.1704 7.13755L11.6116 2.73022C10.6446 1.95746 9.25918 1.98241 8.32108 2.78947L2.8891 7.13755C2.39387 7.51862 2.09788 8.10086 2.08325 8.72271V15.9744C2.08325 17.5535 3.37274 18.8337 4.9634 18.8337H6.56016C7.12594 18.8337 7.58575 18.3805 7.58985 17.8189L7.61223 17.8114Z" fill="white"/>
</g>
</g>
</svg>
