<svg width="84" height="87" viewBox="0 0 84 87" fill="none" xmlns="http://www.w3.org/2000/svg">
<g id="Group 1000007148">
<g id="Group">
<g id="Group_2">
<path id="Vector" d="M77.4737 26.7057C78.1421 27.1068 78.8774 27.2071 79.479 27.04C80.1141 26.9731 80.7491 26.6055 81.217 25.9704C81.6849 25.3354 81.8521 24.5667 81.7518 23.9316C81.1168 23.9985 80.4149 24.3661 79.947 25.0012C79.5793 25.4691 79.4122 26.0373 79.3788 26.5386C79.1782 26.0707 78.7772 25.6362 78.2758 25.3354C77.6074 24.9343 76.8386 24.8341 76.2036 25.0346C76.3373 25.6696 76.8052 26.3047 77.4737 26.7057Z" fill="#E1A553"/>
<path id="Vector_2" d="M5.88202 26.7057C5.21357 27.1068 4.47827 27.2071 3.87666 27.04C3.24163 26.9731 2.60659 26.6055 2.13868 25.9704C1.67076 25.3354 1.50364 24.5667 1.60391 23.9316C2.23894 23.9985 2.94082 24.3661 3.40874 25.0012C3.77639 25.4691 3.9435 26.0373 3.97693 26.5386C4.17746 26.0707 4.57854 25.6362 5.07988 25.3354C5.74833 24.9343 6.51705 24.8341 7.15208 25.0346C7.01839 25.6696 6.5839 26.3047 5.88202 26.7057Z" fill="#E1A553"/>
<path id="Vector_3" d="M80.5151 29.1125C80.1474 29.5804 79.9803 30.1486 79.9469 30.6499C79.7463 30.182 79.3453 29.7475 78.8439 29.4467C78.1755 29.0456 77.4068 28.9454 76.7717 29.1459C76.9054 29.7809 77.3399 30.416 78.0418 30.817C78.7102 31.2181 79.4455 31.3184 80.0471 31.1513C80.6822 31.0844 81.3172 30.7168 81.7851 30.0818C82.2531 29.4467 82.4202 28.678 82.3199 28.043C81.6849 28.1098 81.0164 28.4775 80.5151 29.1125Z" fill="#E1A553"/>
<path id="Vector_4" d="M2.84062 29.1125C3.20827 29.5804 3.37539 30.1486 3.40881 30.6499C3.60935 30.182 4.01042 29.7475 4.51176 29.4467C5.18021 29.0456 5.94894 28.9454 6.58397 29.1459C6.45028 29.7809 6.01578 30.416 5.3139 30.817C4.64545 31.2181 3.91015 31.3184 3.30854 31.1513C2.67351 31.0844 2.03848 30.7168 1.57056 30.0818C1.10264 29.4467 0.935528 28.678 1.0358 28.043C1.70425 28.1098 2.3727 28.4775 2.84062 29.1125Z" fill="#E1A553"/>
<path id="Vector_5" d="M81.0498 33.0885C80.6822 33.5899 80.4816 34.1915 80.4482 34.7262C80.2142 34.2249 79.8132 33.757 79.2784 33.4562C78.5431 33.0217 77.741 32.9214 77.0725 33.1219C77.2062 33.7904 77.6741 34.4589 78.4094 34.8933C79.1113 35.3278 79.9134 35.3947 80.5485 35.2276C81.2169 35.1273 81.9188 34.7597 82.3867 34.0912C82.8881 33.4228 83.0886 32.6206 82.9549 31.9521C82.253 32.019 81.5512 32.4201 81.0498 33.0885Z" fill="#E1A553"/>
<path id="Vector_6" d="M2.33952 33.0885C2.70716 33.5899 2.9077 34.1915 2.94112 34.7262C3.17508 34.2249 3.57616 33.757 4.11092 33.4562C4.84622 33.0217 5.64837 32.9214 6.31682 33.1219C6.18313 33.7904 5.71521 34.4589 4.97991 34.8933C4.27804 35.3278 3.47589 35.3947 2.84086 35.2276C2.1724 35.1273 1.47052 34.7597 1.00261 34.0912C0.501266 33.4228 0.300731 32.6206 0.434422 31.9521C1.10288 32.019 1.83817 32.4201 2.33952 33.0885Z" fill="#E1A553"/>
<path id="Vector_7" d="M80.3816 39.2727C80.2145 38.7379 79.8803 38.2031 79.3455 37.8021C78.6771 37.2673 77.8415 37.0668 77.1396 37.167C77.1731 37.8689 77.5741 38.6376 78.276 39.1724C78.9445 39.7072 79.7132 39.9077 80.4151 39.8074C81.1169 39.8074 81.8522 39.5066 82.4539 38.905C83.0555 38.27 83.3563 37.5013 83.3228 36.7994C82.621 36.766 81.8188 37.0668 81.2172 37.7018C80.7827 38.1363 80.4819 38.7045 80.3816 39.2727Z" fill="#E1A553"/>
<path id="Vector_8" d="M2.97447 39.2727C3.14159 38.7379 3.47581 38.2031 4.01057 37.8021C4.67903 37.2673 5.5146 37.0668 6.21647 37.167C6.18305 37.8689 5.78198 38.6376 5.0801 39.1724C4.41165 39.7072 3.64292 39.9077 2.94105 39.8074C2.23917 39.8074 1.50387 39.5066 0.902265 38.905C0.300656 38.27 -0.000150106 37.5013 0.0332726 36.7994C0.735149 36.766 1.5373 37.0668 2.1389 37.7018C2.60682 38.1363 2.8742 38.7045 2.97447 39.2727Z" fill="#E1A553"/>
<path id="Vector_9" d="M81.1502 42.4478C80.6489 42.8489 80.2812 43.3836 80.1141 43.9184C80.0139 43.3502 79.7465 42.782 79.2786 42.3141C78.6769 41.6791 77.8748 41.3783 77.1729 41.4117C77.1395 42.1136 77.4403 42.9157 78.0419 43.5507C78.6435 44.1523 79.3788 44.4532 80.0807 44.4532C80.7826 44.5534 81.5513 44.3195 82.2198 43.8181C82.8882 43.2834 83.2893 42.5146 83.3561 41.8128C82.6542 41.6791 81.8521 41.8796 81.1502 42.4478Z" fill="#E1A553"/>
<path id="Vector_10" d="M2.2059 42.4478C2.70724 42.8489 3.07489 43.3836 3.24201 43.9184C3.34227 43.3502 3.60966 42.782 4.07757 42.3141C4.67918 41.6791 5.48132 41.3783 6.1832 41.4117C6.21662 42.1136 5.91582 42.9157 5.31421 43.5507C4.7126 44.1523 3.9773 44.4532 3.27543 44.4532C2.57355 44.5534 1.80483 44.3195 1.13638 43.8181C0.467921 43.2834 0.0668454 42.5146 0 41.8128C0.701877 41.6791 1.53745 41.8796 2.2059 42.4478Z" fill="#E1A553"/>
<path id="Vector_11" d="M80.1469 47.7621C79.5119 48.1297 79.044 48.6311 78.7432 49.1992C78.7432 48.5642 78.5427 47.8958 78.1082 47.2942C77.54 46.492 76.7378 46.0241 75.9357 45.9238C75.7686 46.6926 75.9357 47.6284 76.5039 48.4305C77.0386 49.1993 77.8408 49.6672 78.6095 49.8009C79.3448 50.0348 80.2472 49.9346 81.0828 49.4666C81.9183 48.9987 82.4865 48.23 82.6871 47.4613C81.9518 47.1939 81.0159 47.2942 80.1469 47.7621Z" fill="#E1A553"/>
<path id="Vector_12" d="M3.2081 47.7621C3.84313 48.1297 4.31105 48.6311 4.61185 49.1992C4.61185 48.5642 4.81239 47.8958 5.24688 47.2942C5.81507 46.492 6.61722 46.0241 7.41936 45.9238C7.58647 46.6926 7.41936 47.6284 6.85117 48.4305C6.31641 49.1993 5.51427 49.6672 4.74554 49.8009C4.01024 50.0348 3.10783 49.9346 2.27226 49.4666C1.43669 48.9987 0.868505 48.23 0.667969 47.4613C1.43669 47.1939 2.37253 47.2942 3.2081 47.7621Z" fill="#E1A553"/>
<path id="Vector_13" d="M78.0421 53.0756C77.2734 53.343 76.6718 53.8109 76.2707 54.3791C76.371 53.7107 76.2707 52.9419 75.9365 52.2066C75.4686 51.2374 74.6664 50.5689 73.8309 50.335C73.4966 51.1371 73.53 52.1732 73.998 53.1425C74.4659 54.0783 75.2012 54.7133 76.0368 54.9807C76.8055 55.3484 77.8082 55.4152 78.7774 55.081C79.7801 54.7133 80.5154 54.0115 80.8496 53.1759C80.0809 52.7748 79.0448 52.708 78.0421 53.0756Z" fill="#E1A553"/>
<path id="Vector_14" d="M5.3473 53.0756C6.11602 53.343 6.71763 53.8109 7.1187 54.3791C7.01844 53.7107 7.1187 52.9419 7.45293 52.2066C7.92085 51.2374 8.723 50.5689 9.55856 50.335C9.89279 51.1371 9.85937 52.1732 9.39145 53.1425C8.92353 54.0783 8.18823 54.7133 7.35266 54.9807C6.58394 55.3484 5.58126 55.4152 4.612 55.081C3.60932 54.7133 2.87402 54.0115 2.53979 53.1759C3.30852 52.7748 4.34462 52.708 5.3473 53.0756Z" fill="#E1A553"/>
<path id="Vector_15" d="M75.4681 57.3871C74.6994 57.6545 74.0978 58.1224 73.6967 58.6906C73.797 58.0222 73.6967 57.2534 73.3625 56.5181C72.8946 55.5489 72.0924 54.8804 71.2569 54.6465C70.9226 55.4486 70.9561 56.4847 71.424 57.454C71.8919 58.3898 72.6272 59.0249 73.4628 59.2922C74.2315 59.6599 75.2342 59.7267 76.2034 59.3925C77.2061 59.0249 77.9414 58.323 78.2756 57.4874C77.5069 57.0863 76.4708 57.0195 75.4681 57.3871Z" fill="#E1A553"/>
<path id="Vector_16" d="M7.88807 57.3871C8.65679 57.6545 9.2584 58.1224 9.65948 58.6906C9.55921 58.0222 9.65948 57.2534 9.9937 56.5181C10.4616 55.5489 11.2638 54.8804 12.0993 54.6465C12.4336 55.4486 12.4001 56.4847 11.9322 57.454C11.4643 58.3898 10.729 59.0249 9.89343 59.2922C9.12471 59.6599 8.12203 59.7267 7.15277 59.3925C6.15009 59.0249 5.41479 58.323 5.08057 57.4874C5.84929 57.0863 6.88539 57.0195 7.88807 57.3871Z" fill="#E1A553"/>
<path id="Vector_17" d="M72.8278 61.9326C72.0257 62.0998 71.3572 62.5008 70.9227 63.0022C71.1233 62.3337 71.1233 61.565 70.8559 60.7963C70.5217 59.7936 69.8198 59.0249 69.0176 58.6572C68.5831 59.4259 68.4829 60.4621 68.8505 61.4647C69.1848 62.434 69.8532 63.2027 70.6219 63.5704C71.3238 64.0383 72.3265 64.2388 73.3292 64.0049C74.3653 63.7709 75.2008 63.1359 75.6353 62.4006C74.8666 61.8992 73.8639 61.6987 72.8278 61.9326Z" fill="#E1A553"/>
<path id="Vector_18" d="M10.5614 61.9326C11.3636 62.0998 12.032 62.5008 12.4665 63.0022C12.266 62.3337 12.266 61.565 12.5333 60.7963C12.8676 59.7936 13.5695 59.0249 14.3716 58.6572C14.8061 59.4259 14.9064 60.4621 14.5387 61.4647C14.2045 62.434 13.536 63.2027 12.7673 63.5704C12.0654 64.0383 11.0628 64.2388 10.0601 64.0049C9.02397 63.7709 8.1884 63.1359 7.75391 62.4006C8.48921 61.8992 9.52531 61.6987 10.5614 61.9326Z" fill="#E1A553"/>
<path id="Vector_19" d="M69.4527 65.8101C68.6506 65.9103 67.9487 66.2111 67.414 66.6791C67.6813 66.044 67.7482 65.2753 67.5811 64.4732C67.3471 63.4371 66.7455 62.6015 65.9768 62.167C65.4754 62.8689 65.2415 63.905 65.4754 64.9411C65.7094 65.9438 66.2776 66.7793 67.0129 67.2138C67.6813 67.7486 68.6172 68.0494 69.6533 67.9491C70.7228 67.8488 71.6252 67.3141 72.1266 66.6122C71.4915 66.0106 70.5223 65.7098 69.4527 65.8101Z" fill="#E1A553"/>
<path id="Vector_20" d="M13.9036 65.8101C14.7057 65.9103 15.4076 66.2111 15.9423 66.6791C15.675 66.044 15.6081 65.2753 15.7752 64.4732C16.0092 63.4371 16.6108 62.6015 17.3795 62.167C17.8809 62.8689 18.1148 63.905 17.8809 64.9411C17.6469 65.9438 17.0787 66.7793 16.3434 67.2138C15.675 67.7486 14.7391 68.0494 13.703 67.9491C12.6335 67.8488 11.7311 67.3141 11.2297 66.6122C11.8648 66.0106 12.8674 65.7098 13.9036 65.8101Z" fill="#E1A553"/>
<path id="Vector_21" d="M65.9093 70.0892C65.0069 70.1226 64.2382 70.4568 63.6366 70.9248C63.9708 70.2229 64.1045 69.3873 63.9708 68.5183C63.7703 67.3485 63.1687 66.4127 62.3331 65.8779C61.7315 66.6467 61.4307 67.7496 61.6312 68.9194C61.7983 70.0558 62.3999 70.9916 63.1687 71.5264C63.8705 72.1614 64.9066 72.5625 66.043 72.4956C67.2128 72.4288 68.2489 71.894 68.8505 71.1587C68.1486 70.4568 67.0791 70.0558 65.9093 70.0892Z" fill="#E1A553"/>
<path id="Vector_22" d="M17.4795 70.0892C18.3819 70.1226 19.1507 70.4568 19.7523 70.9248C19.418 70.2229 19.2844 69.3873 19.418 68.5183C19.6186 67.3485 20.2202 66.4127 21.0558 65.8779C21.6574 66.6467 21.9582 67.7496 21.7576 68.9194C21.5905 70.0558 20.9889 70.9916 20.2202 71.5264C19.5183 72.1614 18.4822 72.5625 17.3458 72.4956C16.176 72.4288 15.1399 71.894 14.5383 71.1587C15.2402 70.4568 16.3097 70.0558 17.4795 70.0892Z" fill="#E1A553"/>
<path id="Vector_23" d="M61.6987 73.5961C60.7963 73.5626 59.9942 73.7966 59.3591 74.2311C59.7602 73.5626 59.9608 72.7605 59.8939 71.8581C59.7936 70.6883 59.2589 69.6856 58.4902 69.084C57.8217 69.7859 57.4206 70.8554 57.5209 72.0252C57.5877 73.1616 58.1225 74.1308 58.8578 74.7658C59.4928 75.4677 60.4955 75.9356 61.6319 75.9691C62.8017 76.0025 63.8712 75.568 64.5397 74.8995C63.9046 74.1308 62.8685 73.6295 61.6987 73.5961Z" fill="#E1A553"/>
<path id="Vector_24" d="M21.6576 73.5961C22.56 73.5626 23.3621 73.7966 23.9972 74.2311C23.5961 73.5626 23.3956 72.7605 23.4624 71.8581C23.5627 70.6883 24.0974 69.6856 24.8662 69.084C25.5346 69.7859 25.9357 70.8554 25.8354 72.0252C25.7686 73.1616 25.2338 74.1308 24.4985 74.7658C23.8635 75.4677 22.8608 75.9356 21.7244 75.9691C20.5546 76.0025 19.4851 75.568 18.8167 74.8995C19.4517 74.1308 20.4878 73.6295 21.6576 73.5961Z" fill="#E1A553"/>
<path id="Vector_25" d="M56.4846 77.0399C55.6156 76.9062 54.7466 77.0399 54.0781 77.3741C54.5461 76.7725 54.8469 75.9703 54.9137 75.1014C54.9806 73.9316 54.5795 72.862 53.8776 72.1602C53.1423 72.7618 52.6075 73.7979 52.5407 74.9677C52.4739 76.104 52.8749 77.1401 53.51 77.842C54.0447 78.6107 54.9805 79.2124 56.1169 79.3795C57.2867 79.58 58.3897 79.2792 59.1584 78.6776C58.5902 77.842 57.6544 77.2404 56.4846 77.0399Z" fill="#E1A553"/>
<path id="Vector_26" d="M26.9053 77.0399C27.7743 76.9062 28.6432 77.0399 29.3117 77.3741C28.8438 76.7725 28.543 75.9703 28.4761 75.1014C28.4093 73.9316 28.8104 72.862 29.5122 72.1602C30.2475 72.7618 30.7823 73.7979 30.8491 74.9677C30.916 76.104 30.5149 77.1401 29.8799 77.842C29.3451 78.6107 28.4093 79.2124 27.2729 79.3795C26.1031 79.58 25.0002 79.2792 24.2314 78.6776C24.7662 77.842 25.7355 77.2404 26.9053 77.0399Z" fill="#E1A553"/>
<path id="Vector_27" d="M79.0787 24.0984C79.4797 23.4634 79.6134 22.6946 79.4463 21.8925C79.2458 21.1238 78.7444 20.4887 78.1094 20.1211C77.7083 20.7561 77.5746 21.5248 77.7418 22.327C77.9423 23.0957 78.4436 23.6973 79.0787 24.0984Z" fill="#E1A553"/>
<path id="Vector_28" d="M4.27834 24.0984C3.87727 23.4634 3.74358 22.6946 3.9107 21.8925C4.11123 21.1238 4.61257 20.4887 5.24761 20.1211C5.64868 20.7561 5.78237 21.5248 5.61525 22.327C5.41472 23.0957 4.91337 23.6973 4.27834 24.0984Z" fill="#E1A553"/>
</g>
<path id="Vector_29" d="M71.3914 29.0778C68.2163 15.6753 69.8205 9.99339 69.8205 9.99339C69.8205 9.99339 50.803 6.01609 41.7455 0C41.712 0 41.7121 0.0334248 41.6786 0.0334248C41.6452 0.0334248 41.6452 0 41.6118 0C32.5542 5.98267 13.5367 9.99339 13.5367 9.99339C13.5367 9.99339 15.1744 15.6753 11.9658 29.0778C10.161 36.6313 10.0942 58.5232 41.6786 71.9925C73.2631 58.5232 73.1962 36.6313 71.3914 29.0778ZM33.9914 39.4388L26.2373 46.2905L18.4499 39.372L23.7306 22.2595H24.7667L19.6531 38.8706H32.7548L27.6411 22.2595H28.6772L33.9914 39.4388ZM48.8311 58.59H34.5262V54.8801H39.8404V20.7221H21.859V18.9841H39.8404V16.5777L43.5169 16.5777V18.9841H61.4983V20.7221H43.5169V54.8801H48.8311V58.59ZM57.1533 46.2905L49.3993 39.3385L54.6801 22.2929H55.7162L50.6025 38.904H63.7042L58.5905 22.2929H59.6266L64.9074 39.4054L57.1533 46.2905Z" fill="#E1A553"/>
<path id="Vector_30" d="M52.5405 79.7127C51.6715 79.579 50.8025 79.7127 50.134 80.047C50.602 79.4453 50.9028 78.6432 50.9696 77.7742C51.0365 76.6044 50.6354 75.5349 49.9335 74.833C49.1982 75.4346 48.6634 76.4707 48.5966 77.6405C48.5632 78.5429 48.864 79.4788 49.2985 80.1138C48.7971 80.4814 47.6608 81.0831 46.1567 81.4507C46.3573 81.6847 46.4575 82.0189 46.5244 82.2528C47.5939 81.9855 48.7637 81.4841 49.733 80.7154C50.3012 81.3839 51.1367 81.8852 52.1728 82.0523C53.3426 82.2529 54.4456 81.952 55.2143 81.3504C54.6795 80.5483 53.7103 79.9133 52.5405 79.7127Z" fill="#E1A553"/>
<g id="Group_3">
<path id="Vector_31" d="M37.1663 81.4524C35.6957 81.0848 34.5593 80.4832 34.0914 80.1489C34.4925 79.5139 34.8267 78.5781 34.7933 77.6757C34.7264 76.5059 34.2251 75.4698 33.4564 74.8682C32.7879 75.57 32.3534 76.6396 32.4202 77.8094C32.4537 78.7118 32.7879 79.4805 33.2558 80.0821C32.5539 79.7479 31.7184 79.6142 30.8494 79.7479C29.6796 79.9484 28.7437 80.55 28.209 81.3856C28.9777 81.9872 30.0807 82.288 31.2505 82.0875C32.2866 81.9203 33.1221 81.419 33.6903 80.7506C34.6596 81.5527 35.8294 82.0206 36.8655 82.288C36.8655 82.0206 36.9657 81.6864 37.1663 81.4524Z" fill="#E1A553"/>
<path id="Vector_32" d="M45.9559 82.4208C45.889 82.0198 45.7219 81.8192 45.5214 81.5519C45.3208 81.3513 45.0869 81.2176 44.7861 81.1508C44.0174 80.9502 43.3489 81.2176 42.8476 81.5184C42.9478 81.1174 43.0147 80.7163 42.9813 80.2818C42.9144 78.6107 42.012 77.5411 41.6778 77.374C41.3435 77.5411 40.4411 78.6441 40.3743 80.2818C40.3409 80.7163 40.4077 81.1508 40.508 81.5184C40.0066 81.2176 39.3048 80.9502 38.5695 81.1508C38.2686 81.2176 38.0013 81.3847 37.8342 81.5853C37.6336 81.7524 37.4999 82.0198 37.3997 82.4543C37.2994 83.0893 37.5668 83.7243 38.2018 83.8915C39.405 84.2257 38.0013 83.5238 39.1376 82.9222C39.8729 82.5211 40.7085 82.7217 40.6751 83.8246C40.6417 84.5265 40.3074 85.3955 39.4384 85.0947C39.0708 84.961 39.5721 85.9637 40.2406 85.9971C40.4745 85.9971 41.143 85.9302 41.2433 85.4289C41.2433 86.0305 41.4772 86.8326 41.6778 86.9998C41.8783 86.8326 42.1123 86.0305 42.1123 85.4289C42.2125 85.9302 42.881 85.9971 43.1149 85.9971C43.8168 85.9637 44.3182 84.961 43.9171 85.0947C43.0815 85.3955 42.7139 84.5265 42.6805 83.8246C42.6136 82.7217 43.4826 82.5211 44.2179 82.9222C45.3208 83.5238 43.9505 84.2257 45.1537 83.8915C45.8222 83.6909 46.0896 83.0559 45.9559 82.4208Z" fill="#E1A553"/>
</g>
</g>
</g>
</svg>
