<svg xmlns="http://www.w3.org/2000/svg" width="20" height="21" viewBox="0 0 20 21" fill="none">
  <path fill-rule="evenodd" clip-rule="evenodd" d="M8.71728 1.54199H11.2829C12.619 1.54199 13.6665 1.54198 14.5033 1.62155C15.3563 1.70265 16.0547 1.8708 16.6704 2.24809C17.3151 2.64319 17.8572 3.18528 18.2523 3.83002C18.6296 4.4457 18.7978 5.14412 18.8789 5.99708C18.9584 6.8339 18.9584 7.88137 18.9584 9.21752V10.1069C18.9584 11.0579 18.9584 11.8036 18.9173 12.406C18.8755 13.0189 18.7891 13.529 18.5937 14.0007C18.1073 15.1748 17.1745 16.1076 16.0004 16.5939C15.3296 16.8718 14.5656 16.9334 13.5195 16.9514C13.1536 16.9577 12.9218 16.9624 12.7451 16.9819C12.5801 17.0002 12.5161 17.027 12.4786 17.0488C12.4391 17.0718 12.3853 17.1136 12.2918 17.2419C12.1907 17.3806 12.0764 17.5724 11.8952 17.8785L11.4435 18.6418C10.7988 19.7309 9.2013 19.7309 8.55666 18.6418L8.10491 17.8785C7.9237 17.5724 7.80943 17.3806 7.70829 17.2419C7.61485 17.1136 7.56102 17.0718 7.52152 17.0488C7.48407 17.027 7.42007 17.0002 7.25498 16.9819C7.07831 16.9624 6.84654 16.9577 6.48063 16.9514C5.43456 16.9334 4.67053 16.8718 3.99972 16.5939C2.82563 16.1076 1.89282 15.1748 1.40649 14.0007C1.21111 13.529 1.12466 13.0189 1.08284 12.406C1.04174 11.8036 1.04175 11.0579 1.04175 10.1069L1.04175 9.21753C1.04174 7.88137 1.04174 6.8339 1.1213 5.99708C1.2024 5.14412 1.37056 4.4457 1.74785 3.83002C2.14295 3.18528 2.68503 2.64319 3.32978 2.24809C3.94546 1.8708 4.64388 1.70265 5.49684 1.62155C6.33366 1.54198 7.38113 1.54199 8.71728 1.54199ZM5.61515 2.86594C4.85369 2.93834 4.36917 3.07718 3.9829 3.31389C3.50635 3.60592 3.10568 4.00659 2.81365 4.48314C2.57694 4.86941 2.43809 5.35394 2.36569 6.1154C2.29241 6.88616 2.29175 7.87429 2.29175 9.25033V10.0837C2.29175 11.0629 2.29209 11.7661 2.32994 12.3209C2.36742 12.8702 2.43956 13.2283 2.56134 13.5223C2.9208 14.3901 3.61027 15.0796 4.47808 15.4391C4.90777 15.6171 5.45597 15.6836 6.50216 15.7016L6.52868 15.7021C6.86035 15.7078 7.15099 15.7128 7.39256 15.7395C7.65213 15.7683 7.906 15.8264 8.14997 15.9683C8.39187 16.109 8.56636 16.2969 8.71846 16.5056C8.85901 16.6985 9.00345 16.9425 9.16705 17.2189L9.63235 18.0051C9.79298 18.2764 10.2071 18.2764 10.3678 18.0051L10.8331 17.2189C10.9967 16.9425 11.1411 16.6985 11.2817 16.5056C11.4338 16.2969 11.6083 16.109 11.8502 15.9683C12.0941 15.8264 12.348 15.7683 12.6076 15.7395C12.8491 15.7128 13.1398 15.7078 13.4714 15.7021L13.498 15.7016C14.5442 15.6836 15.0924 15.6171 15.5221 15.4391C16.3899 15.0796 17.0794 14.3901 17.4388 13.5223C17.5606 13.2283 17.6327 12.8702 17.6702 12.3209C17.7081 11.7661 17.7084 11.0629 17.7084 10.0837V9.25033C17.7084 7.87429 17.7078 6.88616 17.6345 6.1154C17.5621 5.35394 17.4232 4.86941 17.1865 4.48314C16.8945 4.00659 16.4938 3.60592 16.0173 3.31389C15.631 3.07718 15.1465 2.93834 14.385 2.86594C13.6142 2.79265 12.6261 2.79199 11.2501 2.79199H8.75008C7.37405 2.79199 6.38592 2.79265 5.61515 2.86594ZM12.942 7.55838C13.1861 7.80246 13.1861 8.19819 12.942 8.44227L9.60869 11.7756C9.36813 12.0162 8.97934 12.0201 8.73392 11.7845L7.06725 10.1845C6.81824 9.94548 6.81017 9.54983 7.04921 9.30083C7.28826 9.05182 7.68391 9.04375 7.93291 9.28279L9.15782 10.4587L12.0581 7.55838C12.3022 7.31431 12.6979 7.31431 12.942 7.55838Z" fill="#1C274C"/>
</svg>
