<svg xmlns="http://www.w3.org/2000/svg" width="15" height="14" viewBox="0 0 15 14" fill="none">
  <path d="M5.38623 5.36911C5.51275 4.97926 5.74468 4.63206 6.05626 4.36578C6.36784 4.0995 6.74684 3.92468 7.15164 3.86045C7.55644 3.79623 7.9714 3.84524 8.3501 4.00201C8.72879 4.15877 9.05639 4.41726 9.29736 4.74881C9.53833 5.08035 9.683 5.47194 9.71521 5.88053C9.74743 6.28913 9.66575 6.6986 9.47971 7.0638C9.29367 7.42901 9.01059 7.73586 8.66114 7.95003C8.31168 8.1642 7.90981 8.27755 7.49995 8.27755V8.83291M7.52761 11.0552V11.1108L7.47228 11.1109V11.0552H7.52761Z" stroke="black" stroke-opacity="0.7" stroke-width="1.33333" stroke-linecap="round" stroke-linejoin="round"/>
</svg>
