<svg xmlns="http://www.w3.org/2000/svg" width="20" height="21" viewBox="0 0 20 21" fill="none">
  <path fill-rule="evenodd" clip-rule="evenodd" d="M9.95227 1.54199H10.0479C11.9716 1.54198 13.4791 1.54197 14.6553 1.70011C15.8593 1.86198 16.8093 2.19976 17.555 2.94544C18.3006 3.69111 18.6384 4.64113 18.8003 5.84508C18.9584 7.02132 18.9584 8.52885 18.9584 10.4525V10.5481C18.9584 12.4718 18.9584 13.9793 18.8003 15.1556C18.6384 16.3595 18.3006 17.3095 17.555 18.0552C16.8093 18.8009 15.8593 19.1387 14.6553 19.3005C13.4791 19.4587 11.9716 19.4587 10.0479 19.4587H9.95227C8.02861 19.4587 6.52108 19.4587 5.34484 19.3005C4.14089 19.1387 3.19087 18.8009 2.4452 18.0552C1.69952 17.3095 1.36174 16.3595 1.19987 15.1556C1.04173 13.9793 1.04174 12.4718 1.04175 10.5481V10.4525C1.04174 8.52885 1.04173 7.02132 1.19987 5.84508C1.36174 4.64113 1.69952 3.69111 2.4452 2.94544C3.19087 2.19976 4.14089 1.86198 5.34484 1.70011C6.52107 1.54197 8.0286 1.54198 9.95227 1.54199ZM5.5114 2.93897C4.44606 3.0822 3.80379 3.35461 3.32908 3.82932C2.85436 4.30404 2.58195 4.9463 2.43872 6.01164C2.4161 6.17994 2.39695 6.35645 2.38076 6.54199H5.49032L7.8704 2.80187C6.93084 2.81628 6.16012 2.85175 5.5114 2.93897ZM9.33939 2.79226C9.3239 2.8359 9.30329 2.87848 9.27737 2.91921L6.97196 6.54199H10.907L13.2658 2.83525C12.3798 2.79257 11.3123 2.79199 10.0001 2.79199C9.7726 2.79199 9.55248 2.79201 9.33939 2.79226ZM14.6652 2.96448L12.3886 6.54199H17.6194C17.6032 6.35645 17.5841 6.17994 17.5614 6.01164C17.4182 4.9463 17.1458 4.30404 16.6711 3.82932C16.2232 3.38141 15.6261 3.11361 14.6652 2.96448ZM17.6861 7.79199H11.2594C11.2528 7.7921 11.2462 7.7921 11.2396 7.79199H5.84276C5.83614 7.7921 5.82952 7.7921 5.82289 7.79199H2.31402C2.29212 8.5601 2.29175 9.45212 2.29175 10.5003C2.29175 12.4822 2.29308 13.9057 2.43872 14.989C2.58195 16.0543 2.85436 16.6966 3.32908 17.1713C3.80379 17.646 4.44606 17.9185 5.5114 18.0617C6.59471 18.2073 8.01823 18.2087 10.0001 18.2087C11.9819 18.2087 13.4055 18.2073 14.4888 18.0617C15.5541 17.9185 16.1964 17.646 16.6711 17.1713C17.1458 16.6966 17.4182 16.0543 17.5614 14.989C17.7071 13.9057 17.7084 12.4822 17.7084 10.5003C17.7084 9.45212 17.708 8.5601 17.6861 7.79199ZM11.1403 10.4347L11.225 10.4893C11.7415 10.8225 12.1887 11.111 12.5004 11.3867C12.832 11.68 13.1251 12.0575 13.1251 12.5837C13.1251 13.1098 12.832 13.4874 12.5004 13.7806C12.1887 14.0563 11.7415 14.3448 11.225 14.678L11.1403 14.7326C10.6185 15.0694 10.165 15.362 9.78833 15.5293C9.3964 15.7033 8.89422 15.8287 8.41527 15.5244C7.96139 15.236 7.82376 14.7439 7.76602 14.3105C7.70836 13.8779 7.70838 13.3065 7.70841 12.6294V12.5379C7.70838 11.8609 7.70836 11.2895 7.76602 10.8568C7.82376 10.4235 7.96139 9.93129 8.41527 9.64294C8.89422 9.33866 9.3964 9.46404 9.78833 9.63806C10.165 9.80531 10.6185 10.098 11.1403 10.4347ZM9.04835 10.7101C9.04784 10.7094 9.05173 10.7084 9.06154 10.709C9.05375 10.711 9.04885 10.7107 9.04835 10.7101ZM9.081 10.7114C9.11447 10.7171 9.17665 10.7341 9.28107 10.7805C9.55739 10.9032 9.92794 11.1401 10.5062 11.5132C11.0757 11.8806 11.4405 12.1181 11.6723 12.323C11.8856 12.5117 11.8759 12.578 11.8751 12.5833C11.8759 12.5887 11.8856 12.6556 11.6723 12.8443C11.4405 13.0492 11.0757 13.2867 10.5062 13.6541C9.92794 14.0272 9.55739 14.2641 9.28107 14.3868C9.17665 14.4332 9.11446 14.4503 9.081 14.456C9.06249 14.4203 9.03021 14.3341 9.00506 14.1454C8.95976 13.8055 8.95841 13.3188 8.95841 12.5837C8.95841 11.8485 8.95976 11.3618 9.00506 11.0219C9.03021 10.8332 9.06249 10.747 9.081 10.7114ZM9.04835 14.4572C9.04886 14.4566 9.05376 14.4563 9.06154 14.4584C9.05172 14.459 9.04783 14.4579 9.04835 14.4572ZM9.09181 14.4738C9.09467 14.4762 9.09592 14.4779 9.09582 14.4781C9.09573 14.4783 9.0943 14.4771 9.09181 14.4738ZM9.09181 10.6935C9.0943 10.6902 9.09573 10.689 9.09582 10.6892C9.09591 10.6894 9.09467 10.6911 9.09181 10.6935Z" fill="#1C274C"/>
</svg>
